<svg xmlns="http://www.w3.org/2000/svg" xmlns:xlink="http://www.w3.org/1999/xlink" id="&#x5716;&#x5C64;_1" x="0px" y="0px" viewBox="0 0 187.09 36.85" style="enable-background:new 0 0 187.09 36.85;" xml:space="preserve"><style type="text/css">	.st0{fill:#101937;}	.st1{fill:#FFFFFF;}	.st2{fill:#FFFFFF;stroke:#FFFFFF;stroke-miterlimit:10;}	.st3{fill:#FFFFFF;stroke:#FFFFFF;stroke-linecap:round;stroke-miterlimit:10;}</style><rect x="-10.65" y="-8.72" class="st0" width="199.83" height="50.25"></rect><g>	<path class="st1" d="M69.62,18.87v-0.93c0-4.27,3.28-7.77,7.28-7.77h11.14V1.98H76.59c-8.47,0-15.39,7.39-15.39,16.43  s6.93,16.43,15.39,16.43h11.45v-8.19H76.9C72.89,26.64,69.62,23.15,69.62,18.87z"></path></g><path class="st1" d="M96.68,2.65v6.78c0,0.43-0.35,0.77-0.77,0.77l-5.81,0V1.87l5.81,0C96.33,1.87,96.68,2.22,96.68,2.65z"></path><path class="st1" d="M96.68,27.43v6.78c0,0.43-0.35,0.77-0.77,0.77H90.1v-8.33l5.81,0C96.33,26.66,96.68,27,96.68,27.43z"></path><g>	<path class="st2" d="M28.18,33.95h-3.4V19.82H9.76v14.12h-3.4V2.98h3.4v13.58h15.01V2.98h3.4V33.95z"></path>	<path class="st2" d="M52.16,33.95H36.78V2.98h14.73v3.28H40.18v10.3h10.48v3.26H40.18v10.84h11.98V33.95z"></path></g><g>	<path class="st2" d="M126.9,33.96h-3.42v-14.2h-15.1v14.2h-3.42V2.82h3.42v13.66h15.1V2.82h3.42V33.96z"></path>	<path class="st2" d="M151.01,33.96h-15.46V2.82h14.81v3.3h-11.39v10.36h10.54v3.28h-10.54v10.9h12.04V33.96z"></path>	<path class="st2" d="M181.14,33.96h-4.19L161.94,9.14c-0.38-0.62-0.69-1.27-0.94-1.95h-0.12c0.11,0.67,0.16,2.09,0.16,4.28v22.5  h-3.42V2.82h4.44l14.61,24.43c0.61,1.01,1,1.71,1.18,2.08h0.08c-0.14-0.9-0.2-2.42-0.2-4.58V2.82h3.42V33.96z"></path></g><line class="st3" x1="96.82" y1="13.51" x2="92.79" y2="18.01"></line><line class="st3" x1="92.77" y1="18.1" x2="97.63" y2="19.24"></line><line class="st3" x1="97.61" y1="19.35" x2="92.97" y2="23.58"></line><g></g><g></g><g></g><g></g><g></g><g></g></svg>